<svg xmlns="http://www.w3.org/2000/svg" viewBox="0 0 32 32"><path fill="#524F53" fill-rule="evenodd" d="M13.362 24.607a8.946 8.946 0 0 1-1.705-.722l-2.956 1.498-2.136-2.136 1.497-3.003a8.944 8.944 0 0 1-.672-1.615L4 17.494v-3.021l3.393-1.11a8.945 8.945 0 0 1 .688-1.644L6.565 8.678 8.7 6.54l3.028 1.535a8.945 8.945 0 0 1 1.633-.683L14.472 4h3.022l1.135 3.39c.56.17 1.097.395 1.605.666l2.99-1.515 2.136 2.137-1.48 2.97c.298.54.543 1.114.727 1.714L28 14.472v3.022l-3.39 1.135c-.18.59-.42 1.155-.71 1.688l1.46 2.93-2.137 2.136-2.917-1.478c-.529.289-1.09.526-1.677.705L17.494 28h-3.021l-1.11-3.393zM16 19a3 3 0 1 0 0-6 3 3 0 0 0 0 6z"/></svg>